<?xml version="1.0" encoding="UTF-8" standalone="no"?>
<!-- Created with Inkscape (http://www.inkscape.org/) -->

<svg
   id="svg2"
   version="1.0"
   viewBox="0 0 100 100"
   sodipodi:docname="clock-glass.svg"
   width="100"
   height="100"
   inkscape:version="1.4.4 (dcaf3e7d9e, 2026-05-05)"
   xmlns:inkscape="http://www.inkscape.org/namespaces/inkscape"
   xmlns:sodipodi="http://sodipodi.sourceforge.net/DTD/sodipodi-0.dtd"
   xmlns="http://www.w3.org/2000/svg"
   xmlns:svg="http://www.w3.org/2000/svg">
  <sodipodi:namedview
     id="namedview1"
     pagecolor="#ffffff"
     bordercolor="#000000"
     borderopacity="0.25"
     inkscape:showpageshadow="2"
     inkscape:pageopacity="0.0"
     inkscape:pagecheckerboard="0"
     inkscape:deskcolor="#d1d1d1"
     inkscape:zoom="4.5137615"
     inkscape:cx="52.506098"
     inkscape:cy="54.5"
     inkscape:window-width="1280"
     inkscape:window-height="696"
     inkscape:window-x="0"
     inkscape:window-y="0"
     inkscape:window-maximized="1"
     inkscape:current-layer="svg2" />
  <defs
     id="defs4">
    <linearGradient
       id="linearGradient2202">
      <stop
         id="stop2204"
         stop-color="#a5adad"
         offset="0" />
      <stop
         id="stop2206"
         stop-color="#e8f4ed"
         offset="1" />
    </linearGradient>
  </defs>
  <g
     id="layer1">
    <path
       id="path1327"
       d="m 49,9.94 c -21.4,0.544 -38.7,18 -39,39.5 -0.00218,0.172 0,0.327 0,0.5 0,0.173 -0.00218,0.359 0,0.531 0.0658,5.19 1.14,10.1 3,14.7 8.66,-32.9 34.3,-46.2 53.7,-51.6 -4.78,-2.2 -10.1,-3.48 -15.6,-3.62 h -2.06 z m 40.9,37.2 c -6.36,28.3 -28.3,38.6 -47.6,42.1 2.32,0.452 4.71,0.719 7.16,0.75 h 1.03 c 21.5,-0.273 39,-17.6 39.5,-39 0.0087,-0.343 0,-0.686 0,-1.03 0,-0.344 0.0087,-0.688 0,-1.03 -0.0152,-0.6 -0.0523,-1.19 -0.0938,-1.78 z"
       fill="#dde5f2"
       fill-opacity="0.247" />
  </g>
</svg>
