<!-- Created with Inkscape (http://www.inkscape.org/) -->
<svg id="svg2" version="1.0" viewBox="0 0 100 100" xmlns="http://www.w3.org/2000/svg" xmlns:xlink="http://www.w3.org/1999/xlink">
 <defs id="defs4">
  <linearGradient id="linearGradient3771">
   <stop id="stop3773" stop-color="#b8a569" offset="0"/>
   <stop id="stop3775" stop-color="#413314" offset="1"/>
  </linearGradient>
  <radialGradient id="radialGradient3163" cx="11" cy="-.073" r="22.6" gradientTransform="matrix(-1.23 -.00135 1.18e-5 -.011 22.1 .0993)" gradientUnits="userSpaceOnUse" xlink:href="#linearGradient3771"/>
  <linearGradient id="linearGradient3935" x1="-12.8" x2="-9.99" y1="-3.34" y2="1.31" gradientUnits="userSpaceOnUse" xlink:href="#linearGradient3771"/>
 </defs>
 <g id="layer1">
  <path id="path3670" d="m24.2-0.451c0.647-0.0181 0.66 0.914-0.0024 0.947-13.9 0.0872-28 0.402-40.4 0.0994v-1.26" fill="#f80707"/>
  <path id="rect3941" d="m-12-2.57c-0.199 0-0.375 0.145-0.375 0.344v4.28c0 0.199 0.176 0.375 0.375 0.375h4.28c0.199 0 0.344-0.176 0.344-0.375v-4.28c0-0.199-0.145-0.344-0.344-0.344zm3.32 1.38 0.0401 2.38-2.49 3.56e-4 -0.0198-2.42z" fill="none" stroke="#f60909" stroke-width=".8"/>
 </g>
</svg>
