<!-- Created with Inkscape (http://www.inkscape.org/) -->
<svg id="svg2" sodipodi:docbase="/home/dt/.cairo-clock/themes/ipulse-24" sodipodi:docname="clock-marks.svg" sodipodi:version="0.32" version="1.0" viewBox="0 0 100 100" xmlns="http://www.w3.org/2000/svg" xmlns:sodipodi="http://inkscape.sourceforge.net/DTD/sodipodi-0.dtd" xmlns:xlink="http://www.w3.org/1999/xlink">
 <defs id="defs4">
  <linearGradient id="linearGradient5989">
   <stop id="stop5991" stop-color="#fff" offset="0"/>
   <stop id="stop2316" stop-color="#bcbcbc" offset=".565"/>
   <stop id="stop2318" stop-color="#838383" offset=".837"/>
   <stop id="stop5993" stop-color="#3a3a3a" offset="1"/>
  </linearGradient>
  <linearGradient id="linearGradient3287">
   <stop id="stop3289" stop-color="#fff" offset="0"/>
   <stop id="stop3291" stop-color="#7f7f7f" offset="1"/>
  </linearGradient>
  <linearGradient id="linearGradient2202">
   <stop id="stop2204" stop-color="#a5adad" offset="0"/>
   <stop id="stop2206" stop-color="#e8f4ed" offset="1"/>
  </linearGradient>
 </defs>
 <sodipodi:namedview id="base" bordercolor="#666666" borderopacity="1.0" guidetolerance="1px" pagecolor="#ffffff" showguides="true">
  <sodipodi:guide id="guide1307" orientation="horizontal" position="50.05363"/>
  <sodipodi:guide id="guide1309" orientation="vertical" position="50"/>
  <sodipodi:guide id="guide1311" orientation="horizontal" position="100"/>
  <sodipodi:guide id="guide1313" orientation="vertical" position="0"/>
  <sodipodi:guide id="guide1315" orientation="vertical" position="100"/>
  <sodipodi:guide id="guide1317" orientation="horizontal" position="0"/>
  <sodipodi:guide id="guide1319" orientation="horizontal" position="90.060241"/>
  <sodipodi:guide id="guide1321" orientation="vertical" position="10.040161"/>
  <sodipodi:guide id="guide1323" orientation="vertical" position="90.060241"/>
  <sodipodi:guide id="guide1325" orientation="horizontal" position="9.8367544"/>
  <sodipodi:guide id="guide5901" orientation="vertical" position="204"/>
 </sodipodi:namedview>
 <g id="layer4">
  <g id="g5013" transform="matrix(.259 -.966 .966 .259 -11.1 85.4)">
   <path id="path3096" d="m10 49.7v0.5c3.83 1e-6 5.45 0 5.45 0v-0.5s-1.62 1e-6 -5.45 0z" fill="#c8c8c8" fill-rule="evenodd"/>
   <use id="use5011" transform="translate(74.6)" width="100" height="100" xlink:href="#path3096"/>
  </g>
  <use id="use5017" transform="matrix(.866 -.5 .5 .866 -18.3 31.7)" width="100" height="100" xlink:href="#g5013"/>
  <use id="use5019" transform="matrix(.966 -.259 .259 .966 -11.2 14.7)" width="100" height="100" xlink:href="#use5017"/>
  <use id="use5021" transform="matrix(.966 -.259 .259 .966 -11.2 14.7)" width="100" height="100" xlink:href="#use5019"/>
  <use id="use5023" transform="matrix(.966 -.259 .259 .966 -11.2 14.7)" width="100" height="100" xlink:href="#use5021"/>
  <use id="use5025" transform="matrix(.966 -.259 .259 .966 -11.2 14.7)" width="100" height="100" xlink:href="#use5023"/>
  <use id="use5027" transform="matrix(.866 -.5 .5 .866 -18.3 31.7)" width="100" height="100" xlink:href="#use5025"/>
  <use id="use5029" transform="matrix(.966 -.259 .259 .966 -11.2 14.7)" width="100" height="100" xlink:href="#use5027"/>
  <use id="use5031" transform="matrix(.966 -.259 .259 .966 -11.2 14.7)" width="100" height="100" xlink:href="#use5029"/>
  <use id="use5033" transform="matrix(.966 -.259 .259 .966 -11.2 14.7)" width="100" height="100" xlink:href="#use5031"/>
  <use id="use5035" transform="matrix(.866 -.5 .5 .866 -18.3 31.7)" width="100" height="100" xlink:href="#use5033"/>
  <g id="g5918">
   <path id="path5037" transform="translate(1.78e-15 -38.6)" d="m50.8 49.9a0.777 0.777 0 1 1-1.55 0 0.777 0.777 0 1 1 1.55 0z" fill="#c8c8c8" stroke-width="0" sodipodi:cx="50" sodipodi:cy="49.946369" sodipodi:rx="0.77729672" sodipodi:ry="0.77729672" sodipodi:type="arc"/>
   <use id="use5916" transform="translate(0 76.8)" width="100" height="100" xlink:href="#path5037"/>
  </g>
  <g id="use5924" transform="matrix(.866 -.5 .5 .866 -18.2 31.7)">
   <path id="path5944" transform="translate(1.78e-15 -38.6)" d="m50.8 49.9a0.777 0.777 0 1 1-1.55 0 0.777 0.777 0 1 1 1.55 0z" fill="#c8c8c8" stroke-width="0" sodipodi:cx="50" sodipodi:cy="49.946369" sodipodi:rx="0.77729672" sodipodi:ry="0.77729672" sodipodi:type="arc"/>
   <use id="use5946" transform="translate(0 76.8)" width="100" height="100" xlink:href="#path5037"/>
  </g>
  <use id="use5926" transform="matrix(.966 -.259 .259 .966 -11.2 14.6)" width="100" height="100" xlink:href="#use5924"/>
  <use id="use5928" transform="matrix(.966 -.259 .259 .966 -11.2 14.6)" width="100" height="100" xlink:href="#use5926"/>
  <use id="use5930" transform="matrix(.966 -.259 .259 .966 -11.2 14.6)" width="100" height="100" xlink:href="#use5928"/>
  <use id="use5932" transform="matrix(.866 -.5 .5 .866 -18.2 31.7)" width="100" height="100" xlink:href="#use5930"/>
  <use id="use5934" transform="matrix(.966 -.259 .259 .966 -11.2 14.6)" width="100" height="100" xlink:href="#use5932"/>
  <use id="use5936" transform="matrix(.966 -.259 .259 .966 -11.2 14.6)" width="100" height="100" xlink:href="#use5934"/>
  <use id="use5938" transform="matrix(.966 -.259 .259 .966 -11.2 14.6)" width="100" height="100" xlink:href="#use5936"/>
  <use id="use5940" transform="matrix(.966 -.259 .259 .966 -11.2 14.6)" width="100" height="100" xlink:href="#use5938"/>
  <use id="use5922" transform="matrix(.966 -.259 .259 .966 -11.2 14.6)" width="100" height="100" xlink:href="#g5918"/>
  <g id="g7038">
   <g id="g6828" transform="matrix(.995 .105 -.105 .995 5.48 -4.95)">
    <path id="path5951" transform="translate(14.1 -3.12)" d="m36.2 14.5a0.298 0.298 0 1 1-0.597 0 0.298 0.298 0 1 1 0.597 0z" fill="#dcdcdc" stroke-width="0" sodipodi:cx="35.947613" sodipodi:cy="14.501822" sodipodi:rx="0.29849738" sodipodi:ry="0.29849738" sodipodi:type="arc"/>
    <use id="use6826" transform="translate(0 76.9)" width="100" height="100" xlink:href="#path5951"/>
   </g>
   <use id="use7030" transform="matrix(.995 .105 -.105 .995 5.48 -4.95)" width="100" height="100" xlink:href="#g6828"/>
   <use id="use7032" transform="matrix(.995 .105 -.105 .995 5.48 -4.95)" width="100" height="100" xlink:href="#use7030"/>
   <use id="use7034" transform="matrix(.995 .105 -.105 .995 5.48 -4.95)" width="100" height="100" xlink:href="#use7032"/>
  </g>
  <use id="use7046" transform="matrix(.866 .5 -.5 .866 31.6 -18.3)" width="100" height="100" xlink:href="#g7038"/>
  <use id="use7048" transform="matrix(.866 .5 -.5 .866 31.6 -18.3)" width="100" height="100" xlink:href="#use7046"/>
  <use id="use7050" transform="matrix(.866 .5 -.5 .866 31.6 -18.3)" width="100" height="100" xlink:href="#use7048"/>
  <use id="use7052" transform="matrix(.866 .5 -.5 .866 31.6 -18.3)" width="100" height="100" xlink:href="#use7050"/>
  <use id="use7054" transform="matrix(.866 .5 -.5 .866 31.6 -18.3)" width="100" height="100" xlink:href="#use7052"/>
 </g>
 <g id="layer3" sodipodi:insensitive="true">
  <path id="path2216" transform="matrix(1.7 0 0 1.7 -1.31 -35.3)" d="m13.3 50a3.23 3.23 0 1 1-6.45 0 3.23 3.23 0 1 1 6.45 0z" fill="#810501" stroke-opacity="0" sodipodi:cx="10.040161" sodipodi:cy="50" sodipodi:rx="3.2270663" sodipodi:ry="3.2270663" sodipodi:type="arc"/>
  <path id="path2218" transform="matrix(1.7 0 0 1.7 32.9 -69.3)" d="m13.3 50a3.23 3.23 0 1 1-6.45 0 3.23 3.23 0 1 1 6.45 0z" display="none" fill="#c7c7c7" stroke="#646464" stroke-width=".313" sodipodi:cx="10.040161" sodipodi:cy="50" sodipodi:rx="3.2270663" sodipodi:ry="3.2270663" sodipodi:type="arc"/>
  <path id="path2220" transform="matrix(1.7 0 0 1.7 67.4 -35.1)" d="m13.3 50a3.23 3.23 0 1 1-6.45 0 3.23 3.23 0 1 1 6.45 0z" fill="#2f8000" stroke-opacity="0" sodipodi:cx="10.040161" sodipodi:cy="50" sodipodi:rx="3.2270663" sodipodi:ry="3.2270663" sodipodi:type="arc"/>
 </g>
</svg>
