<!-- Created with Inkscape (http://www.inkscape.org/) -->
<svg id="svg2" sodipodi:docbase="/home/shr/.cairo-clock/themes/tango" sodipodi:docname="clock-hour-hand-shadow.svg" sodipodi:version="0.32" version="1.0" viewBox="0 0 100 100" xmlns="http://www.w3.org/2000/svg" xmlns:sodipodi="http://inkscape.sourceforge.net/DTD/sodipodi-0.dtd" xmlns:xlink="http://www.w3.org/1999/xlink">
 <defs id="defs4">
  <marker id="Arrow1Send" overflow="visible" orient="auto">
   <path id="path3256" transform="scale(.2) rotate(180)" d="m0 0 5-5-17.5 5 17.5 5-5-5z" fill-rule="evenodd" stroke="#000" stroke-width="1pt"/>
  </marker>
  <marker id="CurveOut" overflow="visible" orient="auto">
   <path id="path3143" transform="scale(.6)" d="m-5.41-5.05c2.76 0 5 2.24 5 5 0 2.76-2.24 5-5 5" fill="none" stroke="#000" stroke-width="1pt"/>
  </marker>
  <marker id="StopL" overflow="visible" orient="auto">
   <path id="path3161" transform="scale(.8)" d="m0 5.65v-11.3" fill="none" stroke="#000" stroke-width="1pt"/>
  </marker>
  <marker id="SquareL" overflow="visible" orient="auto">
   <path id="path3197" transform="scale(.8)" d="m-5-5v10h10v-10h-10z" fill-rule="evenodd" stroke="#000" stroke-width="1pt"/>
  </marker>
  <marker id="Dot_s" overflow="visible" orient="auto">
   <path id="path3200" transform="scale(.2) translate(7.13 1)" d="m-2.5-1c0 2.76-2.24 5-5 5s-5-2.24-5-5 2.24-5 5-5 5 2.24 5 5z" fill-rule="evenodd" stroke="#000" stroke-width="1pt"/>
  </marker>
  <marker id="Dot_m" overflow="visible" orient="auto">
   <path id="path3203" transform="scale(.4) translate(7.13 1)" d="m-2.5-1c0 2.76-2.24 5-5 5s-5-2.24-5-5 2.24-5 5-5 5 2.24 5 5z" fill-rule="evenodd" stroke="#000" stroke-width="1pt"/>
  </marker>
  <marker id="Dot_l" overflow="visible" orient="auto">
   <path id="path3206" transform="scale(.8) translate(7.13 1)" d="m-2.5-1c0 2.76-2.24 5-5 5s-5-2.24-5-5 2.24-5 5-5 5 2.24 5 5z" fill-rule="evenodd" stroke="#000" stroke-width="1pt"/>
  </marker>
  <marker id="DistanceOut" overflow="visible" orient="auto">
   <g id="g3209" transform="scale(-.6 .6) translate(8)" stroke="#000">
    <path id="path3211" d="m0 0 5-5-17.5 5 17.5 5-5-5z" fill-rule="evenodd" stroke-width="1pt"/>
    <path id="path3213" d="m-14.8-7v72" fill="none" stroke-width="1.2pt"/>
   </g>
  </marker>
  <marker id="Arrow2Lend" overflow="visible" orient="auto">
   <path id="path3250" transform="scale(1.1) rotate(180) translate(-5)" d="m8.72 4.03-10.9-4.02 10.9-4.02c-1.75 2.37-1.74 5.62-6e-7 8.04z" fill-rule="evenodd" stroke-linejoin="round" stroke-width=".625"/>
  </marker>
  <marker id="Arrow1Lend" overflow="visible" orient="auto">
   <path id="path3268" transform="scale(.8) rotate(180)" d="m0 0 5-5-17.5 5 17.5 5-5-5z" fill-rule="evenodd" stroke="#000" stroke-width="1pt"/>
  </marker>
  <linearGradient id="linearGradient3080">
   <stop id="stop3082" offset="0"/>
   <stop id="stop3084" offset="1"/>
  </linearGradient>
  <linearGradient id="linearGradient6759">
   <stop id="stop6761" stop-color="#d8b0ac" offset="0"/>
   <stop id="stop6763" stop-color="#4a261a" offset="1"/>
  </linearGradient>
  <linearGradient id="linearGradient2202">
   <stop id="stop2204" stop-color="#a5adad" offset="0"/>
   <stop id="stop2206" stop-color="#e8f4ed" offset="1"/>
  </linearGradient>
  <radialGradient id="radialGradient5212" cx="8.75" cy="6.83" r="29.9" gradientUnits="userSpaceOnUse">
   <stop id="stop37937" stop-color="#9497b3" offset="0"/>
   <stop id="stop37939" stop-color="#4c4059" offset="1"/>
  </radialGradient>
  <linearGradient id="linearGradient5210" x1="19.7" x2="20.3" y1="4.26" y2="5.28" gradientUnits="userSpaceOnUse">
   <stop id="stop5206" stop-color="#c4a000" offset="0"/>
   <stop id="stop5208" stop-color="#c4a000" stop-opacity="0" offset="1"/>
  </linearGradient>
  <radialGradient id="radialGradient5202" cx="23.4" cy="11" r="3.35" gradientTransform="matrix(3.63 1.65e-15 -1.61e-15 3.74 -61.5 -29.2)" gradientUnits="userSpaceOnUse">
   <stop id="stop5198" stop-color="#c4a000" offset="0"/>
   <stop id="stop5200" stop-color="#c4a000" stop-opacity="0" offset="1"/>
  </radialGradient>
  <linearGradient id="linearGradient4313" x1="6.34" x2="22.2" y1="7.79" y2="25.9" gradientUnits="userSpaceOnUse">
   <stop id="stop42176" stop-color="#a0a0a0" offset="0"/>
   <stop id="stop42178" stop-color="#fff" offset="1"/>
  </linearGradient>
  <radialGradient id="radialGradient4311" cx="11.9" cy="10" r="29.3" gradientUnits="userSpaceOnUse">
   <stop id="stop2147" stop-color="#fffffd" offset="0"/>
   <stop id="stop2149" stop-color="#cbcbc9" offset="1"/>
  </radialGradient>
  <radialGradient id="radialGradient4309" cx="11.3" cy="10.6" r="15.5" gradientUnits="userSpaceOnUse">
   <stop id="stop10655" stop-color="#f3f4ff" offset="0"/>
   <stop id="stop10657" stop-color="#9193af" offset="1"/>
  </radialGradient>
  <linearGradient id="linearGradient4307" x1="8.92" x2="9.89" y1="37.2" y2="52.1" gradientTransform="matrix(5.72 0 0 1.77 -51.9 -26.9)" gradientUnits="userSpaceOnUse">
   <stop id="stop2154" stop-color="#9aa29a" offset="0"/>
   <stop id="stop2156" stop-color="#b5beb5" offset="1"/>
  </linearGradient>
  <radialGradient id="radialGradient3822" cx="31.1" cy="19" r="8.66" gradientUnits="userSpaceOnUse">
   <stop id="stop3818" offset="0"/>
   <stop id="stop3820" stop-opacity="0" offset="1"/>
  </radialGradient>
  <radialGradient id="radialGradient278" cx="55" cy="125" r="14.4" gradientUnits="userSpaceOnUse">
   <stop id="stop12513" stop-color="#fff" offset="0"/>
   <stop id="stop12517" stop-color="#fff520" stop-opacity=".891" offset=".5"/>
   <stop id="stop12514" stop-color="#fff300" stop-opacity="0" offset="1"/>
  </radialGradient>
 </defs>
 <sodipodi:namedview id="base" bordercolor="#666666" borderopacity="1.0" pagecolor="#ffffff" showguides="true">
  <sodipodi:guide id="guide1307" orientation="horizontal" position="50"/>
  <sodipodi:guide id="guide1309" orientation="vertical" position="50"/>
  <sodipodi:guide id="guide1311" orientation="horizontal" position="100"/>
  <sodipodi:guide id="guide1313" orientation="vertical" position="0"/>
  <sodipodi:guide id="guide1315" orientation="vertical" position="100"/>
  <sodipodi:guide id="guide1317" orientation="horizontal" position="0"/>
  <sodipodi:guide id="guide1319" orientation="horizontal" position="90.060241"/>
  <sodipodi:guide id="guide1321" orientation="vertical" position="10.040161"/>
  <sodipodi:guide id="guide1323" orientation="vertical" position="90.060241"/>
  <sodipodi:guide id="guide1325" orientation="horizontal" position="10.040161"/>
  <sodipodi:guide id="guide4953" orientation="vertical" position="-10.040161"/>
  <sodipodi:guide id="guide4955" orientation="vertical" position="40.060241"/>
  <sodipodi:guide id="guide4957" orientation="vertical" position="30.02008"/>
  <sodipodi:guide id="guide1352" orientation="vertical" position="20.125786"/>
 </sodipodi:namedview>
</svg>
